<svg version="1.1" xmlns="http://www.w3.org/2000/svg" xmlns:xlink="http://www.w3.org/1999/xlink" width="164.09151" height="203.68346" viewBox="0,0,164.09151,203.68346"><g transform="translate(-239.81628,-80.96112)"><g data-paper-data="{&quot;isPaintingLayer&quot;:true}" fill-rule="nonzero" stroke-linejoin="miter" stroke-miterlimit="10" stroke-dasharray="" stroke-dashoffset="0" style="mix-blend-mode: normal"><g stroke-linecap="butt"><path d="M288.36325,284.13392l13.43229,-95.94599h37.50873l12.31263,94.78535z" fill="#b1b1b1" stroke="#000000" stroke-width="1"/><path d="M301.02101,195.15269c1.01448,-3.82035 1.61951,-8.30686 1.61951,-8.30686l35.6603,-0.08632c0,0 0.73869,4.1052 1.74772,8.20039c2.0396,8.27784 -41.21087,8.41482 -39.02753,0.19279z" fill="#938a91" stroke="none" stroke-width="0"/></g><g stroke-linecap="butt"><path d="M270.26025,148.34285c0,-28.57356 22.26925,-48.59372 49.73976,-48.59372c27.47051,0 49.73976,20.02016 49.73976,48.59372c0,28.57356 -21.62752,46.14894 -49.09802,46.14894c-27.47051,0 -50.38149,-17.57538 -50.38149,-46.14894z" fill="#b1b1b1" stroke="#000000" stroke-width="1"/><path d="M271.00485,146.41582c0,-23.96973 22.03418,-40.7642 49.21471,-40.7642c27.18053,0 49.21471,16.79447 49.21471,40.7642c0,0.16882 -5.35519,4.71863 -48.20662,5.02479c-28.98179,-0.15827 -50.22278,-4.24009 -50.22278,-5.02479z" fill="#938a91" stroke="none" stroke-width="0"/></g><path d="M318.87147,144.21425c2.88241,10.75758 -3.86721,21.91293 -15.07571,24.91617c-11.2085,3.00323 -22.63144,-3.28291 -25.51386,-14.04049c-2.88241,-10.75758 3.86721,-21.91293 15.07571,-24.91617c11.2085,-3.00323 22.63144,3.28291 25.51386,14.04049z" fill="#ffffff" stroke="#000000" stroke-width="1" stroke-linecap="butt"/><path d="M348.66197,130.79683c11.2085,3.00323 17.95812,14.15858 15.07571,24.91617c-2.88241,10.75758 -14.30536,17.04372 -25.51386,14.04049c-11.2085,-3.00323 -17.95812,-14.15858 -15.07571,-24.91616c2.88241,-10.75758 14.30536,-17.04373 25.51386,-14.04049z" data-paper-data="{&quot;index&quot;:null}" fill="#ffffff" stroke="#000000" stroke-width="1" stroke-linecap="butt"/><path d="M309.35938,187.91481h23.39274" fill="none" stroke="#000000" stroke-width="1" stroke-linecap="round"/><path d="M290.58318,143.74866c0,-4.0869 4.78621,-7.39999 10.6903,-7.39999c5.90409,0 10.6903,3.31309 10.6903,7.39999c0,4.0869 -4.78621,7.39999 -10.6903,7.39999c-5.90409,0 -10.6903,-3.31309 -10.6903,-7.39999z" fill="#000000" stroke="none" stroke-width="0" stroke-linecap="butt"/><path d="M329.54821,144.57529c0,-4.0869 4.78621,-7.39999 10.6903,-7.39999c5.90409,0 10.6903,3.31309 10.6903,7.39999c0,4.0869 -4.78621,7.4 -10.6903,7.4c-5.90409,0 -10.6903,-3.31309 -10.6903,-7.4z" fill="#000000" stroke="none" stroke-width="0" stroke-linecap="butt"/><path d="M324.38108,141.67486c3.94232,-9.05049 14.3375,-14.03151 24.55449,-11.29394c6.17245,1.65386 10.99269,5.77996 13.59676,10.95042c0.28,0.55594 -38.26533,0.60542 -38.15125,0.34352z" data-paper-data="{&quot;index&quot;:null}" fill="#938a91" stroke="#000000" stroke-width="1" stroke-linecap="butt"/><path d="M279.6968,140.97199c2.60407,-5.17046 7.42431,-9.29656 13.59676,-10.95042c10.21699,-2.73757 20.61217,2.24345 24.55449,11.29394c0.11408,0.2619 -38.43125,0.21242 -38.15125,-0.34352z" fill="#938a91" stroke="#000000" stroke-width="1" stroke-linecap="butt"/><g data-paper-data="{&quot;index&quot;:null}" stroke-width="1" stroke-linecap="butt"><path d="M321.56379,135.52819c-45.00487,0 -81.24751,-9.69355 -81.24751,-20.75922c0,-11.06567 36.48365,-20.03618 81.48852,-20.03618c45.00487,0 81.48852,8.97051 81.48852,20.03618c0,11.06568 -36.72466,20.75922 -81.72953,20.75922z" fill="#938a91" stroke="#000000"/><g fill="none" stroke="none" font-family="sans-serif" font-weight="normal" font-size="12" text-anchor="start"/></g><g><path d="M403.40779,107.16793c-0.22583,11.06337 -36.88495,19.28745 -81.88045,18.36899c-44.9955,-0.91846 -81.28848,-10.63166 -81.06265,-21.69502c0.22583,-11.06337 36.88495,-19.28745 81.88045,-18.36899c44.9955,0.91846 81.28848,10.63165 81.06265,21.69502z" fill="#b1b1b1" stroke="#000000" stroke-width="1" stroke-linecap="butt"/><path d="M343.41852,100.70559c-4.13666,0.81632 -5.05836,-2.42861 -9.09783,-4.39156c-5.98174,-2.90679 -14.39086,-5.20238 -14.39086,-5.20238c0,0 8.68549,-0.39932 18.32668,3.15933c5.78914,2.13683 9.33967,5.6102 5.162,6.43462z" fill="#ffffff" stroke="none" stroke-width="0" stroke-linecap="butt"/><path d="M370.14428,120.53739c0,0 -15.51459,-8.34034 -29.44851,-16.49527c-1.51759,-0.88819 -0.62799,-0.47973 2.01911,-0.97428c5.43186,-1.01482 3.77528,-2.36855 5.05146,-1.97031c20.34921,6.34996 49.35432,11.46955 49.35432,11.46955c0,0 -3.62736,2.33851 -11.64815,4.60336c-8.47035,2.39181 -15.32825,3.36694 -15.32825,3.36694z" fill="#ffffff" stroke="none" stroke-width="0" stroke-linecap="butt"/><path d="M300.74373,91.79657l-18.00958,-3.30862l14.61715,-1.66231l9.36106,2.8053z" fill="#ffffff" stroke="none" stroke-width="0" stroke-linecap="butt"/><path d="M292.86654,98.0792c0,0 8.39274,-10.45728 26.90838,-9.80376c17.92961,0.87501 30.62639,10.86501 30.62639,10.86501" fill="none" stroke="#000000" stroke-width="1" stroke-linecap="round"/><g fill="#cdcdcd" stroke="#000000" stroke-width="1" stroke-linecap="butt"><path d="M316.80464,90.20815l0.17834,-8.73693l4.84957,0.09899l-0.17834,8.73693c0,0 -0.67204,0.94744 -2.5092,0.8119c-2.10649,-0.15541 -2.34037,-0.91089 -2.34037,-0.91089z"/><path d="M313.65858,87.07661l0.04693,-2.29923c0,0 0.9568,-1.32359 5.47798,-1.09578c5.23257,0.26364 5.60605,1.32203 5.60605,1.32203l-0.04693,2.29923c0,0 -1.31139,1.32662 -5.744,1.09035c-3.14807,-0.1678 -5.34003,-1.3166 -5.34003,-1.3166z"/></g></g></g></g></svg>