<svg version="1.1" xmlns="http://www.w3.org/2000/svg" xmlns:xlink="http://www.w3.org/1999/xlink" width="201.2842" height="326.69946" viewBox="0,0,201.2842,326.69946"><g transform="translate(-219.35791,-23.51799)"><g data-paper-data="{&quot;isPaintingLayer&quot;:true}" fill-rule="nonzero" stroke-linejoin="miter" stroke-miterlimit="10" stroke-dasharray="" stroke-dashoffset="0" style="mix-blend-mode: normal"><g fill="#ff9400" stroke="#000000" stroke-width="1" stroke-linecap="butt"><path d="M297.79598,74.77064l22.20403,-50.02028l22.20403,50.02028z"/><path d="M342.20403,173.54955l-22.20402,50.02028l-22.20402,-50.02028z" data-paper-data="{&quot;index&quot;:null}"/><path d="M270.61055,146.00506l-50.02028,-22.20402l50.02028,-22.20402z"/><path d="M369.38946,101.59701l50.02028,22.20403l-50.02028,22.20403z" data-paper-data="{&quot;index&quot;:null}"/><path d="M269.37576,104.57803l-19.66906,-51.0703l51.0703,19.66906z"/><path d="M370.62424,143.02403l19.66906,51.0703l-51.0703,-19.66906z" data-paper-data="{&quot;index&quot;:null}"/><path d="M300.5231,174.17137l-51.0703,19.66906l19.66906,-51.0703z"/><path d="M338.9691,72.9229l51.0703,-19.66906l-19.66906,51.0703z" data-paper-data="{&quot;index&quot;:null}"/></g><path d="M265.50288,123.80103c0,-30.09793 24.39919,-54.49712 54.49712,-54.49712c30.09792,0 54.49712,24.39918 54.49712,54.49712c0,30.09793 -24.39919,54.49712 -54.49712,54.49712c-30.09792,0 -54.49712,-24.39919 -54.49712,-54.49712z" fill="#fff800" stroke="#000000" stroke-width="1" stroke-linecap="butt"/><path d="M285.77089,128.22422c-4.02219,-5.63193 -2.03103,-13.62305 4.44738,-17.84866c6.47843,-4.22561 14.99085,-3.08555 19.01304,2.54638c4.02219,5.63193 2.03103,13.62307 -4.4474,17.84866c-6.47843,4.22561 -14.99085,3.08554 -19.01304,-2.54639z" data-paper-data="{&quot;index&quot;:null}" fill="#000000" stroke="none" stroke-width="0" stroke-linecap="butt"/><path d="M333.02565,147.94944c0,0 -1.19144,10.92647 -13.34304,10.8258c-12.28113,-0.10174 -13.34304,-10.8258 -13.34304,-10.8258" fill="none" stroke="#000000" stroke-width="1" stroke-linecap="round"/><path d="M335.80445,131.10133c-6.47841,-4.22561 -8.46958,-12.21673 -4.44738,-17.84866c4.02219,-5.63193 12.53463,-6.77199 19.01304,-2.54638c6.47841,4.22561 8.46958,12.21673 4.44738,17.84866c-4.02219,5.63193 -12.53463,6.772 -19.01304,2.54639z" data-paper-data="{&quot;index&quot;:null}" fill="#000000" stroke="none" stroke-width="0" stroke-linecap="butt"/><path d="M314.48366,350.21745v-83.42864h16.42779v83.42864z" fill-opacity="0.00784" fill="#ffffff" stroke="none" stroke-width="0" stroke-linecap="butt"/></g></g></svg>